<?xml version="1.0" encoding="UTF-8" standalone="no"?>
<!-- Created with Inkscape (http://www.inkscape.org/) -->

<svg
   xmlns:dc="http://purl.org/dc/elements/1.1/"
   xmlns:cc="http://creativecommons.org/ns#"
   xmlns:rdf="http://www.w3.org/1999/02/22-rdf-syntax-ns#"
   xmlns:svg="http://www.w3.org/2000/svg"
   xmlns="http://www.w3.org/2000/svg"
   xmlns:sodipodi="http://sodipodi.sourceforge.net/DTD/sodipodi-0.dtd"
   xmlns:inkscape="http://www.inkscape.org/namespaces/inkscape"
   width="50"
   height="50"
   viewBox="0 0 13.229166 13.229167"
   version="1.1"
   id="svg7667"
   inkscape:version="0.92.3 (2405546, 2018-03-11)"
   sodipodi:docname="knee-calculate.svg">
  <defs
     id="defs7661" />
  <sodipodi:namedview
     id="base"
     pagecolor="#ffffff"
     bordercolor="#666666"
     borderopacity="1.0"
     inkscape:pageopacity="0.0"
     inkscape:pageshadow="2"
     inkscape:zoom="5.6"
     inkscape:cx="34.745954"
     inkscape:cy="17.685729"
     inkscape:document-units="mm"
     inkscape:current-layer="layer1"
     showgrid="false"
     inkscape:window-width="1366"
     inkscape:window-height="676"
     inkscape:window-x="0"
     inkscape:window-y="24"
     inkscape:window-maximized="1"
     units="px" />
  <metadata
     id="metadata7664">
    <rdf:RDF>
      <cc:Work
         rdf:about="">
        <dc:format>image/svg+xml</dc:format>
        <dc:type
           rdf:resource="http://purl.org/dc/dcmitype/StillImage" />
        <dc:title></dc:title>
      </cc:Work>
    </rdf:RDF>
  </metadata>
  <g
     inkscape:label="Layer 1"
     inkscape:groupmode="layer"
     id="layer1"
     transform="translate(0,-283.77083)">
    <rect
       style="fill:#008080;fill-opacity:1;stroke:#272727;stroke-width:0.26458333;stroke-miterlimit:4;stroke-dasharray:none;stroke-opacity:1"
       id="rect8231"
       width="2.2760162"
       height="6.2447662"
       x="1.2432419"
       y="289.51196" />
    <rect
       style="fill:#008080;fill-opacity:1;stroke:#272727;stroke-width:0.26458333;stroke-miterlimit:4;stroke-dasharray:none;stroke-opacity:1"
       id="rect8231-3"
       width="2.2760162"
       height="6.2447662"
       x="205.59497"
       y="197.592"
       transform="rotate(45)" />
    <circle
       style="fill:#ff0000;fill-opacity:1;stroke:#272727;stroke-width:0.26696694;stroke-miterlimit:4;stroke-dasharray:none;stroke-opacity:1"
       id="path8248"
       cx="2.4946432"
       cy="290.20584"
       r="1.4540166" />
    <path
       d="M 11.462128,289.32708 H 6.2649554 c -0.3779762,0 -0.7087054,0.28938 -0.7087054,0.62011 v 5.37435 c 0,0.33073 0.3307292,0.62012 0.7087054,0.62012 h 5.1971726 c 0.377976,0 0.708705,-0.28939 0.708705,-0.62012 v -5.37435 c 0,-0.33073 -0.330729,-0.62011 -0.708705,-0.62011 z m -4.015997,5.62239 c 0,0.0827 -0.094494,0.16537 -0.1889881,0.16537 H 6.6901787 c -0.094494,0 -0.1889882,-0.0827 -0.1889882,-0.16537 v -0.49609 c 0,-0.0827 0.094494,-0.16537 0.1889882,-0.16537 h 0.5669642 c 0.094494,0 0.1889881,0.0827 0.1889881,0.16537 z m 0,-1.65364 c 0,0.0827 -0.094494,0.16536 -0.1889881,0.16536 H 6.6901787 c -0.094494,0 -0.1889882,-0.0827 -0.1889882,-0.16536 v -0.4961 c 0,-0.0827 0.094494,-0.16536 0.1889882,-0.16536 h 0.5669642 c 0.094494,0 0.1889881,0.0827 0.1889881,0.16536 z m 1.8898815,1.65364 c 0,0.0827 -0.0945,0.16537 -0.188988,0.16537 H 8.5800596 c -0.094494,0 -0.188988,-0.0827 -0.188988,-0.16537 v -0.49609 c 0,-0.0827 0.094494,-0.16537 0.188988,-0.16537 h 0.5669649 c 0.09449,0 0.188988,0.0827 0.188988,0.16537 z m 0,-1.65364 c 0,0.0827 -0.0945,0.16536 -0.188988,0.16536 H 8.5800596 c -0.094494,0 -0.188988,-0.0827 -0.188988,-0.16536 v -0.4961 c 0,-0.0827 0.094494,-0.16536 0.188988,-0.16536 h 0.5669649 c 0.09449,0 0.188988,0.0827 0.188988,0.16536 z m 1.8898805,1.65364 c 0,0.0827 -0.09449,0.16537 -0.188988,0.16537 H 10.46994 c -0.09449,0 -0.188988,-0.0827 -0.188988,-0.16537 v -2.14974 c 0,-0.0827 0.09449,-0.16536 0.188988,-0.16536 h 0.566965 c 0.09449,0 0.188988,0.0827 0.188988,0.16536 z m 0,-3.30729 c 0,0.0827 -0.09449,0.16536 -0.188988,0.16536 H 6.6901787 c -0.094494,0 -0.1889882,-0.0827 -0.1889882,-0.16536 v -1.32292 c 0,-0.0827 0.094494,-0.16536 0.1889882,-0.16536 h 4.3467263 c 0.09449,0 0.188988,0.0827 0.188988,0.16536 z"
       id="path7651"
       inkscape:connector-curvature="0"
       style="stroke-width:0.01381111" />
  </g>
</svg>
