<?xml version="1.0" encoding="UTF-8" standalone="no"?>
<!-- Created with Inkscape (http://www.inkscape.org/) -->

<svg
   xmlns:dc="http://purl.org/dc/elements/1.1/"
   xmlns:cc="http://creativecommons.org/ns#"
   xmlns:rdf="http://www.w3.org/1999/02/22-rdf-syntax-ns#"
   xmlns:svg="http://www.w3.org/2000/svg"
   xmlns="http://www.w3.org/2000/svg"
   xmlns:sodipodi="http://sodipodi.sourceforge.net/DTD/sodipodi-0.dtd"
   xmlns:inkscape="http://www.inkscape.org/namespaces/inkscape"
   width="50"
   height="50"
   viewBox="0 0 13.229166 13.229167"
   version="1.1"
   id="svg7667"
   inkscape:version="0.92.3 (2405546, 2018-03-11)"
   sodipodi:docname="StopKneeSimulation.svg">
  <defs
     id="defs7661" />
  <sodipodi:namedview
     id="base"
     pagecolor="#ffffff"
     bordercolor="#666666"
     borderopacity="1.0"
     inkscape:pageopacity="0.0"
     inkscape:pageshadow="2"
     inkscape:zoom="5.6"
     inkscape:cx="7.3672759"
     inkscape:cy="36.029382"
     inkscape:document-units="mm"
     inkscape:current-layer="layer1"
     showgrid="false"
     inkscape:window-width="1366"
     inkscape:window-height="676"
     inkscape:window-x="0"
     inkscape:window-y="24"
     inkscape:window-maximized="1"
     units="px" />
  <metadata
     id="metadata7664">
    <rdf:RDF>
      <cc:Work
         rdf:about="">
        <dc:format>image/svg+xml</dc:format>
        <dc:type
           rdf:resource="http://purl.org/dc/dcmitype/StillImage" />
        <dc:title></dc:title>
      </cc:Work>
    </rdf:RDF>
  </metadata>
  <g
     inkscape:label="Layer 1"
     inkscape:groupmode="layer"
     id="layer1"
     transform="translate(0,-283.77083)">
    <rect
       style="fill:#008080;fill-opacity:1;stroke:#272727;stroke-width:0.26458333;stroke-miterlimit:4;stroke-dasharray:none;stroke-opacity:1"
       id="rect8231"
       width="2.2760162"
       height="6.2447662"
       x="1.2432419"
       y="289.51196" />
    <rect
       style="fill:#008080;fill-opacity:1;stroke:#272727;stroke-width:0.26458333;stroke-miterlimit:4;stroke-dasharray:none;stroke-opacity:1"
       id="rect8231-3"
       width="2.2760162"
       height="6.2447662"
       x="205.59497"
       y="197.592"
       transform="rotate(45)" />
    <circle
       style="fill:#ff0000;fill-opacity:1;stroke:#272727;stroke-width:0.26696694;stroke-miterlimit:4;stroke-dasharray:none;stroke-opacity:1"
       id="path8248"
       cx="2.4946432"
       cy="290.20584"
       r="1.4540166" />
    <path
       inkscape:connector-curvature="0"
       d="m 8.863542,289.32708 c -1.827012,0 -3.307292,1.48028 -3.307292,3.30729 0,1.82701 1.48028,3.30729 3.307292,3.30729 1.827012,0 3.307291,-1.48028 3.307291,-3.30729 0,-1.82701 -1.480279,-3.30729 -3.307291,-3.30729 z m -0.213374,4.37416 c 0,0.11735 -0.09602,0.21337 -0.213374,0.21337 H 7.796673 c -0.117355,0 -0.213373,-0.096 -0.213373,-0.21337 v -2.13374 c 0,-0.11736 0.09602,-0.21337 0.213373,-0.21337 h 0.640121 c 0.117356,0 0.213374,0.096 0.213374,0.21337 z m 1.493616,0 c 0,0.11735 -0.09602,0.21337 -0.213374,0.21337 H 9.290289 c -0.117355,0 -0.213374,-0.096 -0.213374,-0.21337 v -2.13374 c 0,-0.11736 0.09602,-0.21337 0.213374,-0.21337 H 9.93041 c 0.117356,0 0.213374,0.096 0.213374,0.21337 z"
       id="path1750"
       style="stroke-width:0.01333585" />
  </g>
</svg>
